<?xml version="1.0" encoding="UTF-8"?>
<svg width="100" height="100" viewBox="0 0 100 100" xmlns="http://www.w3.org/2000/svg">
  <defs>
    <linearGradient id="brandGradient" x1="0%" y1="0%" x2="100%" y2="100%">
      <stop offset="0%" style="stop-color:#D97706;stop-opacity:1" />
      <stop offset="50%" style="stop-color:#F59E0B;stop-opacity:1" />
      <stop offset="100%" style="stop-color:#FBBF24;stop-opacity:1" />
    </linearGradient>
    
    <linearGradient id="accentGradient" x1="0%" y1="0%" x2="100%" y2="100%">
      <stop offset="0%" style="stop-color:#7C2D12;stop-opacity:1" />
      <stop offset="100%" style="stop-color:#DC2626;stop-opacity:1" />
    </linearGradient>
  </defs>
  
  <!-- Background circle -->
  <circle cx="50" cy="50" r="45" fill="url(#brandGradient)" opacity="0.1"/>
  
  <!-- Stylized modern 'S' shape -->
  <path d="M 60 20 Q 40 20 30 30 Q 20 40 25 50 Q 30 60 40 60 L 50 60 Q 60 60 60 50 Q 60 40 50 40 Q 35 40 30 50 Q 25 60 35 70 Q 45 80 60 75 Q 75 70 75 55 Q 75 40 60 35 L 50 35 Q 40 35 40 45 Q 40 55 50 55 Q 65 55 70 45 Q 75 35 65 25 Q 55 15 40 20 Q 25 25 25 40" 
        fill="url(#brandGradient)" 
        stroke="url(#accentGradient)" 
        stroke-width="2"/>
        
  <!-- Inner highlight effect -->
  <path d="M 50 30 Q 55 30 58 35 Q 60 40 55 42 Q 50 45 45 42 Q 42 40 45 35 Q 48 30 50 30" 
        fill="#FFFFFF" 
        opacity="0.4"/>
        
  <!-- Decorative dots for style -->
  <circle cx="70" cy="30" r="2" fill="#FBBF24"/>
  <circle cx="75" cy="40" r="1.5" fill="#F59E0B"/>
  <circle cx="30" cy="65" r="2" fill="#FBBF24"/>
  <circle cx="25" cy="55" r="1.5" fill="#F59E0B"/>
</svg>
